HIERARCHY
ROOT Hips
{
	OFFSET	0.00	0.00	0.00
	CHANNELS 6 Xposition Yposition Zposition Zrotation Xrotation Yrotation
	JOINT LeftUpperLeg
	{
		OFFSET	 0.100000	-0.066564	-0.000554
		CHANNELS 3 Zrotation Xrotation Yrotation
		JOINT LeftLowerLeg
		{
			OFFSET	 0.002447	-0.463436	-0.005172
			CHANNELS 3 Zrotation Xrotation Yrotation
			JOINT LeftFoot
			{
				OFFSET	-0.002447	-0.420480	-0.020576
				CHANNELS 3 Zrotation Xrotation Yrotation
				JOINT LeftToes
				{
					OFFSET	 0.003734	-0.104922	 0.126407
					CHANNELS 3 Zrotation Xrotation Yrotation
					End Site
					{
						OFFSET	 0.000000	 0.000000	 0.059955
					}
				}
			}
		}
	}
	JOINT RightUpperLeg
	{
		OFFSET	-0.100000	-0.066564	-0.000554
		CHANNELS 3 Zrotation Xrotation Yrotation
		JOINT RightLowerLeg
		{
			OFFSET	-0.002447	-0.463436	-0.005146
			CHANNELS 3 Zrotation Xrotation Yrotation
			JOINT RightFoot
			{
				OFFSET	 0.002447	-0.420479	-0.020602
				CHANNELS 3 Zrotation Xrotation Yrotation
				JOINT RightToes
				{
					OFFSET	-0.003734	-0.104922	 0.126407
					CHANNELS 3 Zrotation Xrotation Yrotation
					End Site
					{
						OFFSET	-0.000000	 0.000000	 0.059955
					}
				}
			}
		}
	}
	JOINT Spine
	{
		OFFSET	 0.000000	 0.099235	-0.012273
		CHANNELS 3 Zrotation Xrotation Yrotation
		JOINT Chest
		{
			OFFSET	-0.000001	 0.116455	-0.014223
			CHANNELS 3 Zrotation Xrotation Yrotation
			JOINT UpperChest
			{
				OFFSET	 0.000001	 0.133602	-0.016265
				CHANNELS 3 Zrotation Xrotation Yrotation
				JOINT LeftShoulder
				{
					OFFSET	 0.061058	 0.091105	 0.007056
					CHANNELS 3 Zrotation Xrotation Yrotation
					JOINT LeftUpperArm
					{
						OFFSET	 0.133942	-0.002659	-0.026009
						CHANNELS 3 Zrotation Xrotation Yrotation
						JOINT LeftLowerArm
						{
							OFFSET	 0.274047	 0.000000	 0.000000
							CHANNELS 3 Zrotation Xrotation Yrotation
							JOINT LeftHand
							{
								OFFSET	 0.276145	 0.000000	 0.000000
								CHANNELS 3 Zrotation Xrotation Yrotation
								End Site
								{
									OFFSET	 0.165687	 0.000000	 0.000000
								}
							}
						}
					}
				}
				JOINT Neck
				{
					OFFSET	 0.000000	 0.150325	 0.007929
					CHANNELS 3 Zrotation Xrotation Yrotation
					JOINT Head
					{
						OFFSET	 0.000000	 0.103218	 0.031424
						CHANNELS 3 Zrotation Xrotation Yrotation
						End Site
						{
							OFFSET	 0.000000	 0.061931	 0.018855
						}
					}
				}
				JOINT RightShoulder
				{
					OFFSET	-0.061057	 0.091105	 0.007056
					CHANNELS 3 Zrotation Xrotation Yrotation
					JOINT RightUpperArm
					{
						OFFSET	-0.133943	-0.002660	-0.026009
						CHANNELS 3 Zrotation Xrotation Yrotation
						JOINT RightLowerArm
						{
							OFFSET	-0.274047	 0.000000	 0.000000
							CHANNELS 3 Zrotation Xrotation Yrotation
							JOINT RightHand
							{
								OFFSET	-0.276145	 0.000000	 0.000000
								CHANNELS 3 Zrotation Xrotation Yrotation
								End Site
								{
									OFFSET	-0.165687	 0.000000	 0.000000
								}
							}
						}
					}
				}
			}
		}
	}
}
MOTION
Frames:    14
Frame Time: 0.03333334
-0.306520	 1.044140	-0.514540	-2.692896	 2.301701	 2.217621	 3.890980	 3.439076	 6.503674	 0.270326	 11.097140	-0.034216	-3.579443	-16.091560	 8.129424	 0.000126	-0.163191	-0.000924	-4.779371	 8.929758	-13.201130	 0.001802	 0.079663	 0.000513	 10.303040	-8.309820	-1.357340	 0.000107	 0.358620	 0.062048	 1.102336	-1.448550	-2.188021	-0.000000	 0.000000	 0.000000	 2.153993	-2.944197	-4.358015	 0.953351	 2.533358	 16.811400	-82.959180	 2.203383	-0.708180	-26.381220	 28.625830	-50.938990	 29.230270	 24.230120	-19.007210	-1.808291	 0.983112	 3.280075	-1.802965	 1.069888	 3.224757	-0.112817	 6.532187	-21.346210	 86.592980	 4.159278	 4.067839	 20.692920	 28.430580	 60.927530	-23.441530	 5.731432	 9.757199
-0.306120	 1.043750	-0.513430	-2.684391	 2.257399	 2.804658	 3.924594	 3.295537	 6.000150	 0.272698	 11.439280	-0.035179	-3.619911	-16.285320	 8.036545	 0.000811	-0.179719	 0.000462	-4.712704	 9.149793	-13.597670	 0.002070	 0.079650	-0.000181	 10.331760	-8.502688	-1.541160	 0.000158	 0.357832	 0.063544	 1.080425	-1.483685	-2.193896	-0.000000	 0.000000	 0.000000	 2.106489	-3.011465	-4.368756	 0.856993	 2.559435	 16.702090	-82.968900	 2.165489	-0.689966	-26.367810	 28.737250	-50.868590	 29.138580	 23.739870	-19.413030	-1.817498	 0.822709	 3.250613	-1.774385	 0.892965	 3.262685	-0.117871	 6.546764	-21.349550	 86.428380	 4.351708	 4.179193	 20.852710	 28.644120	 60.765490	-22.761590	 6.394762	 9.677350
-0.305850	 1.043560	-0.512590	-2.622166	 2.206420	 3.201270	 3.884760	 3.295562	 5.783473	 0.293774	 11.527300	-0.038168	-3.690152	-16.349010	 7.870669	 0.000273	-0.135356	 0.000063	-4.715126	 9.326320	-13.907240	 0.002128	 0.079646	-0.000153	 10.300880	-8.629863	-1.644942	-0.000611	 0.357670	 0.054841	 1.036553	-1.508948	-2.178040	-0.000000	 0.000000	 0.000000	 2.018246	-3.060235	-4.339378	 0.752552	 2.581141	 16.684940	-83.023460	 2.029713	-0.786406	-26.337950	 28.815420	-50.664360	 29.071110	 23.771770	-19.311110	-1.895470	 0.807246	 3.258131	-1.809857	 0.864542	 3.225631	-0.073520	 6.685371	-21.360770	 86.297970	 4.588629	 4.389924	 20.797600	 28.929800	 60.711140	-22.050280	 7.178514	 9.794153
-0.305430	 1.043430	-0.511420	-2.508522	 2.069101	 3.709739	 3.785482	 3.517491	 5.285870	 0.278100	 11.354570	-0.035888	-3.650089	-16.296940	 7.896818	 0.000190	-0.119763	-0.000443	-4.738444	 9.627053	-14.309460	 0.001478	 0.078766	-0.000271	 10.156600	-8.726752	-1.797828	-0.000557	 0.358369	 0.029110	 0.979632	-1.524776	-2.177470	-0.000000	 0.000000	 0.000000	 1.903878	-3.091157	-4.338606	 0.591949	 2.578705	 16.653030	-82.931900	 2.057355	-0.689679	-26.295020	 28.784770	-50.668270	 29.095460	 23.792350	-19.271470	-1.938560	 0.838418	 3.128219	-1.827089	 0.877736	 3.121677	-0.010063	 6.842195	-21.398530	 86.152370	 5.003918	 4.678211	 20.629600	 29.118200	 60.681150	-21.907070	 7.709815	 10.085380
-0.305110	 1.043380	-0.510700	-2.413906	 2.002081	 4.050640	 3.693995	 3.719832	 5.018062	 0.276430	 11.082830	-0.034470	-3.616877	-16.194850	 7.832472	-0.000437	-0.097536	 0.000476	-4.771271	 9.799404	-14.657440	 0.001787	 0.075563	-0.000508	 10.105230	-8.730421	-1.868355	 0.000231	 0.357632	 0.017184	 0.941451	-1.553136	-2.169202	-0.000000	 0.000000	 0.000000	 1.828022	-3.144205	-4.320812	 0.507147	 2.563605	 16.668330	-82.867350	 2.041497	-0.653676	-26.255080	 28.766280	-50.731000	 29.098060	 23.818980	-19.183410	-1.969882	 0.868927	 3.082000	-1.899394	 0.927742	 3.062626	-0.102879	 6.803361	-21.261380	 86.246850	 5.054596	 4.571893	 20.491110	 29.645820	 60.700070	-22.165600	 8.063508	 10.304750
-0.304750	 1.043410	-0.510100	-2.305768	 1.968949	 4.355389	 3.582033	 3.889514	 4.776031	 0.273368	 10.802200	-0.033357	-3.558875	-16.049530	 7.781143	 0.000476	-0.107513	-0.000374	-4.828471	 9.921444	-14.934930	 0.002078	 0.079657	 0.000620	 10.005810	-8.719449	-1.963669	-0.000640	 0.358318	 0.000352	 0.903088	-1.599730	-2.144535	-0.000000	 0.000000	 0.000000	 1.750295	-3.236911	-4.273624	 0.400834	 2.610633	 16.657710	-82.863500	 1.972675	-0.622932	-26.207910	 28.752240	-50.871250	 29.127430	 23.791120	-19.106080	-2.043685	 0.897582	 3.051660	-1.972705	 0.996972	 3.004454	-0.253940	 6.815187	-21.146990	 86.230650	 5.214067	 4.652950	 20.653710	 29.929880	 60.587280	-22.210030	 8.147500	 10.379190
-0.304200	 1.043580	-0.509270	-2.182051	 1.763866	 4.781623	 3.466781	 4.308594	 4.366844	 0.259817	 10.357020	-0.030866	-3.531598	-15.807410	 7.784433	-0.000253	-0.154158	 0.000633	-4.876675	 10.250560	-15.347780	 0.002035	 0.088676	 0.000531	 9.960376	-8.772409	-2.022064	 0.000786	 0.358515	 0.000620	 0.877167	-1.583633	-2.138337	-0.000000	 0.000000	 0.000000	 1.698245	-3.203944	-4.260241	 0.246439	 2.747874	 16.661540	-82.827970	 1.864556	-0.712084	-26.273520	 28.689160	-50.954670	 29.025260	 23.850860	-18.991550	-2.170697	 1.054755	 3.018881	-2.115385	 1.026695	 3.002875	-0.412018	 6.937335	-20.956990	 86.232090	 5.232572	 4.656054	 20.750060	 30.276840	 60.595010	-21.936650	 8.258334	 10.170410
-0.303860	 1.043650	-0.508660	-2.130181	 1.659014	 5.054115	 3.421673	 4.576201	 4.145270	 0.255196	 10.035470	-0.029847	-3.506741	-15.680290	 7.748102	 0.000186	-0.119776	-0.000621	-4.877825	 10.435980	-15.690720	 0.002697	 0.089558	 0.000688	 9.913447	-8.712132	-2.008518	 0.000597	 0.358519	 0.000879	 0.874779	-1.586919	-2.124858	-0.000000	 0.000000	 0.000000	 1.695993	-3.212864	-4.232759	 0.189780	 2.668868	 16.743290	-82.838350	 1.796505	-0.747790	-26.306260	 28.623710	-51.149140	 28.878760	 23.993750	-18.780200	-2.283097	 1.042549	 3.110746	-2.281733	 1.052731	 3.084393	-0.506611	 6.911723	-20.822290	 86.245850	 5.222988	 4.686501	 20.728010	 30.525300	 60.597850	-21.805400	 8.386312	 10.129070
-0.303620	 1.043710	-0.507610	-2.101727	 1.547105	 5.417542	 3.426711	 4.841330	 3.849705	 0.249434	 9.756127	-0.028065	-3.567058	-15.575610	 7.682301	-0.000317	-0.112305	-0.000475	-4.826385	 10.665550	-16.169190	 0.002604	 0.089560	 0.000705	 9.871048	-8.639038	-1.953091	-0.000497	 0.359234	 0.000238	 0.867592	-1.626012	-2.091617	-0.000000	 0.000000	 0.000000	 1.677876	-3.288095	-4.167714	 0.161725	 2.680858	 16.700760	-82.934980	 1.641018	-0.829237	-26.385600	 28.520730	-51.297950	 28.738270	 24.083070	-18.544740	-2.358101	 1.030103	 3.189185	-2.344072	 1.110046	 3.126693	-0.646674	 6.890017	-20.652080	 86.207980	 5.210728	 4.666960	 20.749810	 30.768120	 60.586400	-22.105220	 8.385289	 10.255150
-0.303480	 1.043750	-0.506860	-2.092639	 1.503210	 5.654159	 3.443498	 4.956755	 3.669235	 0.242883	 9.634416	-0.027685	-3.605704	-15.530850	 7.628836	-0.000733	-0.099134	 0.000428	-4.784326	 10.796600	-16.459140	 0.001923	 0.079802	-0.000193	 9.938356	-8.629127	-1.952465	-0.000119	 0.360938	 0.000926	 0.868854	-1.667644	-2.062486	-0.000000	 0.000000	 0.000000	 1.679799	-3.369969	-4.110605	 0.129726	 2.689216	 16.678320	-82.928850	 1.610100	-0.857620	-26.449510	 28.448830	-51.336260	 28.661900	 24.116560	-18.488950	-2.312909	 1.058842	 3.175593	-2.319294	 1.142285	 3.121511	-0.682670	 6.921865	-20.592030	 86.240140	 5.163304	 4.514080	 20.479160	 30.996540	 60.707190	-22.288050	 8.105774	 10.280850
-0.303430	 1.043750	-0.506360	-2.084229	 1.539437	 5.902609	 3.464242	 4.932593	 3.567486	 0.247366	 9.598926	-0.027747	-3.679994	-15.496420	 7.473736	-0.000329	-0.127898	 0.000214	-4.740561	 10.831190	-16.775030	 0.002348	 0.074861	 0.000311	 9.914411	-8.597792	-1.935313	-0.000054	 0.359335	 0.001063	 0.863368	-1.723670	-2.057065	-0.000000	 0.000000	 0.000000	 1.669237	-3.484213	-4.096324	 0.099141	 2.665131	 16.656530	-82.904370	 1.599727	-0.907236	-26.493390	 28.411700	-51.345190	 28.585610	 24.147350	-18.465840	-2.392233	 1.068603	 3.236498	-2.389509	 1.183193	 3.226687	-0.689222	 6.896091	-20.560630	 86.283340	 5.027370	 4.359555	 20.318840	 31.085330	 60.878740	-22.296180	 8.459373	 10.131460
-0.303420	 1.043780	-0.505930	-2.088392	 1.531601	 6.141267	 3.505985	 4.907890	 3.445876	 0.248264	 9.643548	-0.028965	-3.743561	-15.508000	 7.343611	 0.000107	-0.104186	 0.000317	-4.685202	 10.900690	-17.082160	 0.001978	 0.079791	-0.000903	 9.932981	-8.605139	-1.885955	-0.000207	 0.360152	-0.000643	 0.869437	-1.750260	-2.057334	-0.000000	 0.000000	 0.000000	 1.680488	-3.536540	-4.096965	 0.093158	 2.729672	 16.660480	-82.875020	 1.619280	-0.981114	-26.531550	 28.323760	-51.490090	 28.411650	 24.274320	-18.297000	-2.498556	 1.140047	 3.406022	-2.513752	 1.190288	 3.409757	-0.707316	 6.952082	-20.523040	 86.256610	 4.863883	 4.328065	 20.387580	 30.941900	 60.750350	-22.301210	 8.734076	 10.280990
-0.303630	 1.043790	-0.506230	-2.057193	 1.712666	 6.524188	 3.512547	 4.620129	 3.219157	 0.250986	 9.709867	-0.029166	-3.835863	-15.506800	 7.194492	 0.000064	-0.046768	 0.000133	-4.639935	 10.766560	-17.559380	 0.002671	 0.079087	-0.000181	 9.884871	-8.582952	-1.868376	 0.000334	 0.361040	 0.000406	 0.874862	-1.801983	-2.048853	-0.000000	 0.000000	 0.000000	 1.689831	-3.639858	-4.081761	 0.064996	 2.615129	 16.656680	-82.772090	 1.634628	-1.037993	-26.607010	 28.101880	-51.567510	 28.262630	 24.452950	-18.250060	-2.520313	 1.097049	 3.753366	-2.535702	 1.134652	 3.748505	-0.815248	 6.873222	-20.386820	 86.250600	 4.669453	 4.181455	 20.445400	 30.797980	 60.996070	-22.666190	 8.531018	 10.213590
-0.303630	 1.043790	-0.506230	-2.057193	 1.712666	 6.524188	 3.512547	 4.620129	 3.219157	 0.250986	 9.709867	-0.029166	-3.835863	-15.506800	 7.194492	 0.000064	-0.046768	 0.000133	-4.639935	 10.766560	-17.559380	 0.002671	 0.079087	-0.000181	 9.884871	-8.582952	-1.868376	 0.000334	 0.361040	 0.000406	 0.874862	-1.801983	-2.048853	-0.000000	 0.000000	 0.000000	 1.689831	-3.639858	-4.081761	 0.064996	 2.615129	 16.656680	-82.772090	 1.634628	-1.037993	-26.607010	 28.101880	-51.567510	 28.262630	 24.452950	-18.250060	-2.520313	 1.097049	 3.753366	-2.535702	 1.134652	 3.748505	-0.815248	 6.873222	-20.386820	 86.250600	 4.669453	 4.181455	 20.445400	 30.797980	 60.996070	-22.666190	 8.531018	 10.213590
